<svg xmlns="http://www.w3.org/2000/svg" width="1024" height="1024" viewBox="0 0 1024 1024">
<defs><linearGradient id="bg" x1="0" y1="0" x2="1" y2="1"><stop offset="0" stop-color="#e7745f"/><stop offset="1" stop-color="#a23d2b"/></linearGradient>
<radialGradient id="gl" cx=".3" cy=".22" r=".8"><stop offset="0" stop-color="#fff" stop-opacity=".22"/><stop offset=".6" stop-color="#fff" stop-opacity="0"/></radialGradient>
<linearGradient id="sg" x1="0" y1="0" x2="1" y2="1"><stop offset="0" stop-color="#FFC857"/><stop offset="1" stop-color="#FF6B3D"/></linearGradient></defs>
<rect width="1024" height="1024" rx="224" fill="url(#bg)"/><rect width="1024" height="1024" rx="224" fill="url(#gl)"/><g fill="none" stroke="#fff" stroke-width="56" stroke-linecap="round" stroke-linejoin="round"><path d="M300,616 C300,480 396,404 512,404 C628,404 724,480 724,616 Z"/><path d="M262,664 H762"/><path d="M512,404 V372"/><circle cx="512" cy="352" r="22" fill="#fff" stroke="none"/><path d="M400,560 C410,512 440,478 480,462" stroke-width="36" opacity=".55"/></g><path d="M0,-46 C6,-10 10,-6 46,0 C10,6 6,10 0,46 C-6,10 -10,6 -46,0 C-10,-6 -6,-10 0,-46Z" fill="#ffffff" transform="translate(724,300)"/></svg>